<svg width="304" height="263" viewBox="0 0 304 263" fill="none" xmlns="http://www.w3.org/2000/svg">
<path d="M49.8706 18.4683C49.8268 18.4683 50.3819 15.7439 50.433 15.5467C51.0612 13.5966 53.4276 10.2076 55.7138 10.2149C56.0946 10.2256 56.4689 10.3165 56.8122 10.4817C57.1555 10.6469 57.4601 10.8826 57.7062 11.1734C57.9522 11.4643 58.1342 11.8037 58.2402 12.1697C58.3462 12.5356 58.3738 12.9198 58.3213 13.2971C58.1533 14.904 56.7071 16.2771 55.3997 17.066C53.8659 18.0228 49.8706 18.4683 49.8706 18.4683Z" fill="#319EFF"/>
<path d="M45.4372 0.150597C47.6284 0.924815 48.6656 4.91277 48.5925 6.95787C48.5925 7.13317 48.1835 9.87945 48.147 9.87945H48.1032C48.2712 10.5076 48.4538 11.1869 48.6364 11.9319C48.9577 13.305 49.3083 14.8534 49.5786 16.5772C49.8919 18.4237 50.0968 20.2869 50.1921 22.1574C50.3086 24.2533 50.2377 26.3555 49.9803 28.4388C49.9769 28.463 49.9769 28.4876 49.9803 28.5118C50.2651 27.9056 51.1124 26.2257 51.1854 26.1088C52.3102 24.3997 55.4802 21.7264 57.6932 22.3619C58.0566 22.4727 58.3925 22.6589 58.6791 22.9083C58.9657 23.1577 59.1964 23.4647 59.3563 23.8093C59.5162 24.1539 59.6016 24.5284 59.6071 24.9082C59.6125 25.2881 59.5378 25.6648 59.3878 26.0139C58.8034 27.5185 57.0505 28.4607 55.5824 28.877C53.9244 29.3518 50.2286 28.7967 49.9365 28.7455C49.6241 30.8601 49.1702 32.9513 48.5779 35.005C48.2371 36.2029 47.867 37.3983 47.4677 38.5912C47.7234 38.0727 47.9644 37.6125 48.0009 37.5541C49.1257 35.8377 52.3029 33.1717 54.5087 33.8072C54.8721 33.918 55.208 34.1042 55.4946 34.3536C55.7811 34.603 56.0119 34.91 56.1718 35.2546C56.3317 35.5992 56.4171 35.9737 56.4226 36.3535C56.428 36.7334 56.3532 37.1101 56.2032 37.4591C55.6189 38.9638 53.866 39.906 52.3979 40.3223C50.9298 40.7386 47.7453 40.3223 46.9126 40.2127L46.4525 41.5859C45.7221 43.7771 44.926 45.9682 44.2613 48.1156C44.0203 48.846 43.8084 49.6348 43.5966 50.3944C43.8304 49.9343 44.0276 49.5472 44.0641 49.4887C45.1816 47.7796 48.3588 45.1064 50.5646 45.7418C50.9273 45.8538 51.2625 46.0406 51.5486 46.2901C51.8347 46.5395 52.0654 46.8462 52.2257 47.1902C52.386 47.5343 52.4725 47.9082 52.4795 48.2877C52.4865 48.6672 52.4139 49.044 52.2664 49.3938C51.6821 50.9057 49.9219 51.8406 48.4538 52.2642C46.9857 52.6879 44.1152 52.3154 43.1219 52.1766C42.9247 52.9581 42.7348 53.7396 42.5814 54.5065C42.4864 55.0397 42.3623 55.5364 42.2965 56.0696L42.0774 57.6399C41.9752 58.6406 41.8583 59.6704 41.7853 60.6492C41.7268 61.3284 41.683 61.9785 41.6392 62.6358C41.8729 61.9054 42.3696 60.3935 42.3696 60.2767C43.1784 58.6697 44.3854 57.2968 45.8755 56.2887C45.9549 56.1026 46.0554 55.9261 46.1749 55.7628C46.3817 55.4437 46.6535 55.1718 46.9726 54.9649C47.2916 54.7581 47.6507 54.6208 48.0264 54.5622C48.4021 54.5036 48.786 54.525 49.1529 54.6249C49.5198 54.7248 49.8614 54.901 50.1556 55.142C51.8939 56.6393 51.4557 60.7441 50.6595 62.6285C50.6157 62.7381 49.9657 63.8848 49.5494 64.6079C49.8634 64.2208 50.1556 63.841 50.4843 63.4539C51.1197 62.6723 51.7771 61.9127 52.4782 61.0947L53.5519 59.9334C53.9025 59.539 54.3261 59.203 54.7132 58.772C55.6262 57.8883 56.5977 57.0337 57.5983 56.1937C56.919 55.6386 54.5233 53.6228 53.8368 52.2496C53.1502 50.8765 52.6608 48.9555 53.3766 47.5021C53.534 47.1554 53.7625 46.8458 54.0473 46.5931C54.3321 46.3405 54.6668 46.1505 55.0297 46.0355C55.3926 45.9205 55.7757 45.883 56.154 45.9255C56.5323 45.9681 56.8975 46.0896 57.2258 46.2823C59.1613 47.5021 59.3585 51.6288 58.8546 53.5862C58.8546 53.7104 58.2995 55.0909 58 55.8432C58.6062 55.3465 59.2052 54.8498 59.8333 54.3824C61.6447 52.9873 63.5218 51.6215 65.3843 50.2556L67.0861 48.9994C66.8451 48.8022 63.9527 46.4649 63.1785 44.9238C62.4992 43.5579 62.0026 41.6297 62.7184 40.1835C62.8749 39.8361 63.1029 39.5256 63.3876 39.2723C63.6722 39.019 64.0071 38.8286 64.3704 38.7135C64.7336 38.5984 65.1171 38.5611 65.4956 38.6043C65.8742 38.6474 66.2395 38.7699 66.5675 38.9638C68.5104 40.1762 68.7003 44.3029 68.1963 46.2677C68.1598 46.4138 67.4075 48.4004 67.1957 48.8971C68.4373 47.9695 69.6717 47.0346 70.8476 46.0559C72.4476 44.7516 73.9603 43.3438 75.3761 41.8415C75.2665 41.7466 72.2354 39.3216 71.4466 37.7513C70.76 36.3855 70.2706 34.4499 70.9864 33.0037C71.1431 32.6573 71.3708 32.3478 71.655 32.0952C71.9391 31.8426 72.2731 31.6526 72.6355 31.5375C72.9978 31.4225 73.3803 31.385 73.7581 31.4274C74.1359 31.4699 74.5005 31.5914 74.8283 31.784C76.7711 33.0037 76.9684 37.1305 76.4644 39.0879C76.4644 39.2194 75.8582 40.7313 75.5733 41.4471L75.6829 41.5201C77.0665 39.9673 78.3106 38.2956 79.4006 36.5242C80.0141 35.5528 80.54 34.596 81.0366 33.6538C80.4231 33.2594 77.6549 31.4261 76.7858 30.0895C75.9166 28.7528 75.2592 26.9415 75.807 25.4222C75.9244 25.0601 76.1168 24.7267 76.3716 24.4439C76.6265 24.1611 76.938 23.9351 77.286 23.7808C77.634 23.6264 78.0107 23.5471 78.3914 23.548C78.772 23.549 79.1483 23.6301 79.4955 23.7862C81.5625 24.7868 82.2053 28.8989 81.9204 30.8929C81.9204 31.0025 81.6283 32.1053 81.4165 32.9015C81.6283 32.4705 81.862 32.0323 82.0592 31.616C82.7896 30.0602 83.4104 28.5849 83.9217 27.2336C84.2139 26.5032 84.4549 25.8094 84.6521 25.1666C84.2504 24.4362 82.6873 21.6315 82.534 20.0538C82.3806 18.4762 82.6289 16.5626 83.8195 15.467C84.0905 15.2002 84.4147 14.9935 84.7709 14.8602C85.1272 14.727 85.5075 14.6703 85.8871 14.6937C86.2667 14.7171 86.6371 14.8202 86.9742 14.9962C87.3114 15.1722 87.6077 15.4172 87.8439 15.7153C89.2171 17.5486 87.9097 21.4708 86.7264 23.1361C86.6242 23.2822 84.7617 25.3273 84.7398 25.3273V25.2835C84.5352 25.9043 84.3161 26.569 84.0532 27.2847C83.5711 28.6141 83.0087 30.1041 82.2856 31.6671C81.5212 33.3774 80.6604 35.0429 79.7073 36.6557C78.6438 38.4647 77.4216 40.1757 76.0554 41.7685L76.0042 41.8269C76.5739 41.4763 78.1954 40.5414 78.3342 40.483C80.2186 39.6795 84.3234 39.2267 85.828 40.9504C86.0702 41.2438 86.2479 41.5848 86.3496 41.9514C86.4512 42.318 86.4746 42.7018 86.4181 43.078C86.3616 43.4542 86.2265 43.8142 86.0217 44.1348C85.8168 44.4553 85.5468 44.7291 85.2291 44.9384C83.9071 45.8733 81.9277 45.6688 80.4669 45.2305C78.8236 44.7047 76.0846 42.2067 75.8362 42.0022C74.4096 43.5938 72.8772 45.0871 71.2494 46.4722C70.3072 47.2829 69.3284 48.0718 68.3278 48.8533C68.8318 48.5611 69.2846 48.3055 69.3503 48.2763C71.2275 47.4728 75.3323 47.02 76.8369 48.7437C77.0802 49.0366 77.2588 49.3776 77.3611 49.7443C77.4634 50.1111 77.4871 50.4953 77.4305 50.8718C77.374 51.2484 77.2385 51.6087 77.033 51.9292C76.8275 52.2497 76.5565 52.5232 76.238 52.7317C74.9233 53.6666 72.9366 53.4621 71.4831 53.0238C70.0296 52.5856 67.5974 50.4675 66.9693 49.9051C66.5821 50.1972 66.2389 50.4967 65.8225 50.7961C63.9893 52.1985 62.1706 53.5936 60.3811 55.0251C59.7603 55.5218 59.1686 56.0404 58.5697 56.5589L59.4608 56.0623C61.3379 55.2588 65.4427 54.7987 66.9473 56.5224C67.1897 56.8164 67.3675 57.158 67.4692 57.5252C67.5709 57.8923 67.5943 58.2767 67.5378 58.6535C67.4813 59.0302 67.3462 59.3909 67.1413 59.712C66.9364 60.0332 66.6663 60.3077 66.3484 60.5177C65.0337 61.4526 63.047 61.2481 61.5936 60.8025C60.1401 60.357 57.9416 58.4507 57.2112 57.786C56.6196 58.3338 56.0206 58.8816 55.4728 59.4367C55.1003 59.8238 54.7425 60.1671 54.3773 60.5834L53.3255 61.7667C52.69 62.5482 52.0254 63.3443 51.4192 64.1185C50.9955 64.6517 50.6011 65.1703 50.2067 65.6962C50.8129 65.1849 52.04 64.2354 52.1496 64.1477C53.8806 63.0668 57.8758 61.9566 59.6215 63.4758C59.9044 63.7299 60.1306 64.0407 60.2855 64.388C60.4404 64.7354 60.5205 65.1114 60.5205 65.4917C60.5205 65.872 60.4404 66.248 60.2855 66.5953C60.1306 66.9426 59.9044 67.2534 59.6215 67.5076C58.4529 68.6324 56.4662 68.7492 54.9616 68.5155C53.2963 68.2526 50.287 66.3243 49.9145 66.0468C49.2572 66.9159 48.6291 67.7559 48.0447 68.5666C46.0215 71.364 44.4439 73.7743 43.3629 75.4689L43.2533 75.6442L41.851 74.9649L42.0701 74.6289C43.2022 72.9344 44.8529 70.5387 46.9564 67.7632C47.6211 66.8794 48.3442 65.9518 49.0965 65.0096C48.3141 64.1548 47.5825 63.2548 46.9053 62.3145C45.2911 62.9499 41.9459 62.9718 41.5077 62.9718C41.442 64.0528 41.3835 65.1119 41.3397 66.1052C41.1936 69.5527 41.2082 72.4304 41.2448 74.4463V74.68L39.7036 73.9496C39.7036 71.9484 39.784 69.2459 39.9885 66.0468C40.0542 64.9512 40.1492 63.7752 40.2587 62.5701C39.8278 62.4605 36.3438 61.5694 35.0291 60.5177C33.8386 59.5609 32.5823 58.0197 32.6261 56.3983C32.6232 56.0179 32.7004 55.6411 32.8527 55.2925C33.005 54.944 33.229 54.6313 33.5101 54.375C33.7912 54.1187 34.1231 53.9245 34.4842 53.805C34.8454 53.6854 35.2276 53.6432 35.6061 53.6812C37.8776 53.9733 39.784 57.6399 40.1565 59.6485C40.1565 59.7727 40.2733 61.1093 40.3172 61.9127C40.3683 61.4234 40.4048 60.9413 40.4632 60.4519C40.5582 59.4513 40.6897 58.458 40.8284 57.3843C40.9088 56.8657 40.9964 56.3471 41.0768 55.8213C41.1571 55.2954 41.2959 54.7549 41.4055 54.2144C41.683 52.9727 42.019 51.7237 42.3915 50.4748C41.515 50.3871 38.4108 50.0219 37.0815 49.255C35.7522 48.4881 34.2768 47.1588 34.0796 45.5519C34.0185 45.1761 34.0374 44.7915 34.1349 44.4234C34.2324 44.0554 34.4064 43.7119 34.6455 43.4156C34.8847 43.1193 35.1836 42.8767 35.5227 42.7036C35.8619 42.5305 36.2338 42.4309 36.6141 42.4112C38.9002 42.3601 41.3397 45.6907 42.0117 47.6262C42.0555 47.7431 42.3842 49.182 42.5522 49.9781C42.7786 49.2477 42.9977 48.4808 43.2826 47.7285C44.013 45.5373 44.8383 43.3972 45.6417 41.228C45.8901 40.5633 46.1238 39.8987 46.3721 39.234C46.0581 39.234 42.355 38.8469 40.865 37.9923C39.5429 37.2619 38.0676 35.8961 37.863 34.2892C37.8032 33.9135 37.8228 33.5294 37.9208 33.1618C38.0188 32.7942 38.1929 32.4513 38.4318 32.1552C38.6707 31.8591 38.9691 31.6166 39.3077 31.4431C39.6464 31.2697 40.0176 31.1694 40.3975 31.1485C42.6909 31.0974 45.1305 34.428 45.8024 36.3635C45.8536 36.5096 46.321 38.5547 46.416 39.1098C46.9418 37.649 47.4604 36.1883 47.8767 34.7275C48.4944 32.7553 48.9824 30.7449 49.3375 28.709C49.1915 28.709 45.3277 28.3438 43.8011 27.4673C42.4718 26.737 40.9964 25.3711 40.7992 23.7642C40.7381 23.3888 40.7569 23.0046 40.8545 22.6369C40.9521 22.2692 41.1262 21.9263 41.3654 21.6305C41.6047 21.3347 41.9036 21.0928 42.2428 20.9205C42.582 20.7483 42.9537 20.6496 43.3337 20.6309C45.6198 20.5724 48.0593 23.903 48.7313 25.8386C48.7751 25.9627 49.1403 27.5404 49.2937 28.3H49.4179C49.7196 26.2427 49.8369 24.1625 49.7685 22.0843C49.7685 20.9376 49.6589 19.8493 49.5494 18.7903C48.819 18.7903 45.503 18.7903 44.0422 18.1548C42.5814 17.5194 41.0256 16.38 40.6458 14.8096C40.5445 14.4418 40.522 14.0567 40.5799 13.6795C40.6377 13.3024 40.7745 12.9417 40.9813 12.6211C41.1882 12.3004 41.4604 12.0271 41.7802 11.819C42.1 11.6109 42.4601 11.4726 42.837 11.4133C45.1086 11.0992 47.8987 14.1523 48.7824 15.9929C48.8263 16.0951 49.2061 17.1688 49.4617 17.9576C49.4106 17.4755 49.3594 16.9789 49.2937 16.4968C49.0673 14.7804 48.7459 13.2247 48.4538 11.8442C48.2785 11.0627 48.1105 10.3834 47.9425 9.70416C47.2121 9.33896 44.3489 7.83435 43.3702 6.62189C42.3915 5.40944 41.515 3.64919 41.9094 2.08614C41.9967 1.71703 42.1605 1.37036 42.3902 1.06855C42.62 0.766741 42.9105 0.51652 43.243 0.334076C43.5756 0.151633 43.9427 0.0410306 44.3206 0.0094246C44.6986 -0.0221814 45.079 0.0259136 45.4372 0.150597Z" fill="#319EFF"/>
<path d="M86.8362 35.4205C85.0467 35.3474 81.4678 33.5141 81.4678 33.5141C81.4678 33.5141 83.3887 31.5202 83.5275 31.4106C85.127 30.1397 88.9689 28.6132 90.8752 29.8841C91.1869 30.1024 91.4489 30.384 91.6441 30.7106C91.8394 31.0372 91.9635 31.4013 92.0083 31.7791C92.0531 32.157 92.0176 32.54 91.9042 32.9032C91.7908 33.2664 91.6019 33.6015 91.35 33.8866C90.3275 35.1356 88.3627 35.4862 86.8362 35.4205Z" fill="#319EFF"/>
<g opacity="0.5">
<path d="M49.8706 18.4683C49.8268 18.4683 50.3819 15.7439 50.433 15.5467C51.0612 13.5966 53.4276 10.2076 55.7138 10.2149C56.0946 10.2256 56.4689 10.3165 56.8122 10.4817C57.1555 10.6469 57.4601 10.8826 57.7062 11.1734C57.9522 11.4643 58.1342 11.8037 58.2402 12.1697C58.3462 12.5356 58.3738 12.9198 58.3213 13.2971C58.1533 14.904 56.7071 16.2771 55.3997 17.066C53.8659 18.0228 49.8706 18.4683 49.8706 18.4683Z" fill="white"/>
<path d="M45.4372 0.150597C47.6284 0.924815 48.6656 4.91277 48.5925 6.95787C48.5925 7.13317 48.1835 9.87945 48.147 9.87945H48.1032C48.2712 10.5076 48.4538 11.1869 48.6364 11.9319C48.9577 13.305 49.3083 14.8534 49.5786 16.5772C49.8919 18.4237 50.0968 20.2869 50.1921 22.1574C50.3086 24.2533 50.2377 26.3555 49.9803 28.4388C49.9769 28.463 49.9769 28.4876 49.9803 28.5118C50.2651 27.9056 51.1124 26.2257 51.1854 26.1088C52.3102 24.3997 55.4802 21.7264 57.6932 22.3619C58.0566 22.4727 58.3925 22.6589 58.6791 22.9083C58.9657 23.1577 59.1964 23.4647 59.3563 23.8093C59.5162 24.1539 59.6016 24.5284 59.6071 24.9082C59.6125 25.2881 59.5378 25.6648 59.3878 26.0139C58.8034 27.5185 57.0505 28.4607 55.5824 28.877C53.9244 29.3518 50.2286 28.7967 49.9365 28.7455C49.6241 30.8601 49.1702 32.9513 48.5779 35.005C48.2371 36.2029 47.867 37.3983 47.4677 38.5912C47.7234 38.0727 47.9644 37.6125 48.0009 37.5541C49.1257 35.8377 52.3029 33.1717 54.5087 33.8072C54.8721 33.918 55.208 34.1042 55.4946 34.3536C55.7811 34.603 56.0119 34.91 56.1718 35.2546C56.3317 35.5992 56.4171 35.9737 56.4226 36.3535C56.428 36.7334 56.3532 37.1101 56.2032 37.4591C55.6189 38.9638 53.866 39.906 52.3979 40.3223C50.9298 40.7386 47.7453 40.3223 46.9126 40.2127L46.4525 41.5859C45.7221 43.7771 44.926 45.9682 44.2613 48.1156C44.0203 48.846 43.8084 49.6348 43.5966 50.3944C43.8304 49.9343 44.0276 49.5472 44.0641 49.4887C45.1816 47.7796 48.3588 45.1064 50.5646 45.7418C50.9273 45.8538 51.2625 46.0406 51.5486 46.2901C51.8347 46.5395 52.0654 46.8462 52.2257 47.1902C52.386 47.5343 52.4725 47.9082 52.4795 48.2877C52.4865 48.6672 52.4139 49.044 52.2664 49.3938C51.6821 50.9057 49.9219 51.8406 48.4538 52.2642C46.9857 52.6879 44.1152 52.3154 43.1219 52.1766C42.9247 52.9581 42.7348 53.7396 42.5814 54.5065C42.4864 55.0397 42.3623 55.5364 42.2965 56.0696L42.0774 57.6399C41.9752 58.6406 41.8583 59.6704 41.7853 60.6492C41.7268 61.3284 41.683 61.9785 41.6392 62.6358C41.8729 61.9054 42.3696 60.3935 42.3696 60.2767C43.1784 58.6697 44.3854 57.2968 45.8755 56.2887C45.9549 56.1026 46.0554 55.9261 46.1749 55.7628C46.3817 55.4437 46.6535 55.1718 46.9726 54.9649C47.2916 54.7581 47.6507 54.6208 48.0264 54.5622C48.4021 54.5036 48.786 54.525 49.1529 54.6249C49.5198 54.7248 49.8614 54.901 50.1556 55.142C51.8939 56.6393 51.4557 60.7441 50.6595 62.6285C50.6157 62.7381 49.9657 63.8848 49.5494 64.6079C49.8634 64.2208 50.1556 63.841 50.4843 63.4539C51.1197 62.6723 51.7771 61.9127 52.4782 61.0947L53.5519 59.9334C53.9025 59.539 54.3261 59.203 54.7132 58.772C55.6262 57.8883 56.5977 57.0337 57.5983 56.1937C56.919 55.6386 54.5233 53.6228 53.8368 52.2496C53.1502 50.8765 52.6608 48.9555 53.3766 47.5021C53.534 47.1554 53.7625 46.8458 54.0473 46.5931C54.3321 46.3405 54.6668 46.1505 55.0297 46.0355C55.3926 45.9205 55.7757 45.883 56.154 45.9255C56.5323 45.9681 56.8975 46.0896 57.2258 46.2823C59.1613 47.5021 59.3585 51.6288 58.8546 53.5862C58.8546 53.7104 58.2995 55.0909 58 55.8432C58.6062 55.3465 59.2052 54.8498 59.8333 54.3824C61.6447 52.9873 63.5218 51.6215 65.3843 50.2556L67.0861 48.9994C66.8451 48.8022 63.9527 46.4649 63.1785 44.9238C62.4992 43.5579 62.0026 41.6297 62.7184 40.1835C62.8749 39.8361 63.1029 39.5256 63.3876 39.2723C63.6722 39.019 64.0071 38.8286 64.3704 38.7135C64.7336 38.5984 65.1171 38.5611 65.4956 38.6043C65.8742 38.6474 66.2395 38.7699 66.5675 38.9638C68.5104 40.1762 68.7003 44.3029 68.1963 46.2677C68.1598 46.4138 67.4075 48.4004 67.1957 48.8971C68.4373 47.9695 69.6717 47.0346 70.8476 46.0559C72.4476 44.7516 73.9603 43.3438 75.3761 41.8415C75.2665 41.7466 72.2354 39.3216 71.4466 37.7513C70.76 36.3855 70.2706 34.4499 70.9864 33.0037C71.1431 32.6573 71.3708 32.3478 71.655 32.0952C71.9391 31.8426 72.2731 31.6526 72.6355 31.5375C72.9978 31.4225 73.3803 31.385 73.7581 31.4274C74.1359 31.4699 74.5005 31.5914 74.8283 31.784C76.7711 33.0037 76.9684 37.1305 76.4644 39.0879C76.4644 39.2194 75.8582 40.7313 75.5733 41.4471L75.6829 41.5201C77.0665 39.9673 78.3106 38.2956 79.4006 36.5242C80.0141 35.5528 80.54 34.596 81.0366 33.6538C80.4231 33.2594 77.6549 31.4261 76.7858 30.0895C75.9166 28.7528 75.2592 26.9415 75.807 25.4222C75.9244 25.0601 76.1168 24.7267 76.3716 24.4439C76.6265 24.1611 76.938 23.9351 77.286 23.7808C77.634 23.6264 78.0107 23.5471 78.3914 23.548C78.772 23.549 79.1483 23.6301 79.4955 23.7862C81.5625 24.7868 82.2053 28.8989 81.9204 30.8929C81.9204 31.0025 81.6283 32.1053 81.4165 32.9015C81.6283 32.4705 81.862 32.0323 82.0592 31.616C82.7896 30.0602 83.4104 28.5849 83.9217 27.2336C84.2139 26.5032 84.4549 25.8094 84.6521 25.1666C84.2504 24.4362 82.6873 21.6315 82.534 20.0538C82.3806 18.4762 82.6289 16.5626 83.8195 15.467C84.0905 15.2002 84.4147 14.9935 84.7709 14.8602C85.1272 14.727 85.5075 14.6703 85.8871 14.6937C86.2667 14.7171 86.6371 14.8202 86.9742 14.9962C87.3114 15.1722 87.6077 15.4172 87.8439 15.7153C89.2171 17.5486 87.9097 21.4708 86.7264 23.1361C86.6242 23.2822 84.7617 25.3273 84.7398 25.3273V25.2835C84.5352 25.9043 84.3161 26.569 84.0532 27.2847C83.5711 28.6141 83.0087 30.1041 82.2856 31.6671C81.5212 33.3774 80.6604 35.0429 79.7073 36.6557C78.6438 38.4647 77.4216 40.1757 76.0554 41.7685L76.0042 41.8269C76.5739 41.4763 78.1954 40.5414 78.3342 40.483C80.2186 39.6795 84.3234 39.2267 85.828 40.9504C86.0702 41.2438 86.2479 41.5848 86.3496 41.9514C86.4512 42.318 86.4746 42.7018 86.4181 43.078C86.3616 43.4542 86.2265 43.8142 86.0217 44.1348C85.8168 44.4553 85.5468 44.7291 85.2291 44.9384C83.9071 45.8733 81.9277 45.6688 80.4669 45.2305C78.8236 44.7047 76.0846 42.2067 75.8362 42.0022C74.4096 43.5938 72.8772 45.0871 71.2494 46.4722C70.3072 47.2829 69.3284 48.0718 68.3278 48.8533C68.8318 48.5611 69.2846 48.3055 69.3503 48.2763C71.2275 47.4728 75.3323 47.02 76.8369 48.7437C77.0802 49.0366 77.2588 49.3776 77.3611 49.7443C77.4634 50.1111 77.4871 50.4953 77.4305 50.8718C77.374 51.2484 77.2385 51.6087 77.033 51.9292C76.8275 52.2497 76.5565 52.5232 76.238 52.7317C74.9233 53.6666 72.9366 53.4621 71.4831 53.0238C70.0296 52.5856 67.5974 50.4675 66.9693 49.9051C66.5821 50.1972 66.2389 50.4967 65.8225 50.7961C63.9893 52.1985 62.1706 53.5936 60.3811 55.0251C59.7603 55.5218 59.1686 56.0404 58.5697 56.5589L59.4608 56.0623C61.3379 55.2588 65.4427 54.7987 66.9473 56.5224C67.1897 56.8164 67.3675 57.158 67.4692 57.5252C67.5709 57.8923 67.5943 58.2767 67.5378 58.6535C67.4813 59.0302 67.3462 59.3909 67.1413 59.712C66.9364 60.0332 66.6663 60.3077 66.3484 60.5177C65.0337 61.4526 63.047 61.2481 61.5936 60.8025C60.1401 60.357 57.9416 58.4507 57.2112 57.786C56.6196 58.3338 56.0206 58.8816 55.4728 59.4367C55.1003 59.8238 54.7425 60.1671 54.3773 60.5834L53.3255 61.7667C52.69 62.5482 52.0254 63.3443 51.4192 64.1185C50.9955 64.6517 50.6011 65.1703 50.2067 65.6962C50.8129 65.1849 52.04 64.2354 52.1496 64.1477C53.8806 63.0668 57.8758 61.9566 59.6215 63.4758C59.9044 63.7299 60.1306 64.0407 60.2855 64.388C60.4404 64.7354 60.5205 65.1114 60.5205 65.4917C60.5205 65.872 60.4404 66.248 60.2855 66.5953C60.1306 66.9426 59.9044 67.2534 59.6215 67.5076C58.4529 68.6324 56.4662 68.7492 54.9616 68.5155C53.2963 68.2526 50.287 66.3243 49.9145 66.0468C49.2572 66.9159 48.6291 67.7559 48.0447 68.5666C46.0215 71.364 44.4439 73.7743 43.3629 75.4689L43.2533 75.6442L41.851 74.9649L42.0701 74.6289C43.2022 72.9344 44.8529 70.5387 46.9564 67.7632C47.6211 66.8794 48.3442 65.9518 49.0965 65.0096C48.3141 64.1548 47.5825 63.2548 46.9053 62.3145C45.2911 62.9499 41.9459 62.9718 41.5077 62.9718C41.442 64.0528 41.3835 65.1119 41.3397 66.1052C41.1936 69.5527 41.2082 72.4304 41.2448 74.4463V74.68L39.7036 73.9496C39.7036 71.9484 39.784 69.2459 39.9885 66.0468C40.0542 64.9512 40.1492 63.7752 40.2587 62.5701C39.8278 62.4605 36.3438 61.5694 35.0291 60.5177C33.8386 59.5609 32.5823 58.0197 32.6261 56.3983C32.6232 56.0179 32.7004 55.6411 32.8527 55.2925C33.005 54.944 33.229 54.6313 33.5101 54.375C33.7912 54.1187 34.1231 53.9245 34.4842 53.805C34.8454 53.6854 35.2276 53.6432 35.6061 53.6812C37.8776 53.9733 39.784 57.6399 40.1565 59.6485C40.1565 59.7727 40.2733 61.1093 40.3172 61.9127C40.3683 61.4234 40.4048 60.9413 40.4632 60.4519C40.5582 59.4513 40.6897 58.458 40.8284 57.3843C40.9088 56.8657 40.9964 56.3471 41.0768 55.8213C41.1571 55.2954 41.2959 54.7549 41.4055 54.2144C41.683 52.9727 42.019 51.7237 42.3915 50.4748C41.515 50.3871 38.4108 50.0219 37.0815 49.255C35.7522 48.4881 34.2768 47.1588 34.0796 45.5519C34.0185 45.1761 34.0374 44.7915 34.1349 44.4234C34.2324 44.0554 34.4064 43.7119 34.6455 43.4156C34.8847 43.1193 35.1836 42.8767 35.5227 42.7036C35.8619 42.5305 36.2338 42.4309 36.6141 42.4112C38.9002 42.3601 41.3397 45.6907 42.0117 47.6262C42.0555 47.7431 42.3842 49.182 42.5522 49.9781C42.7786 49.2477 42.9977 48.4808 43.2826 47.7285C44.013 45.5373 44.8383 43.3972 45.6417 41.228C45.8901 40.5633 46.1238 39.8987 46.3721 39.234C46.0581 39.234 42.355 38.8469 40.865 37.9923C39.5429 37.2619 38.0676 35.8961 37.863 34.2892C37.8032 33.9135 37.8228 33.5294 37.9208 33.1618C38.0188 32.7942 38.1929 32.4513 38.4318 32.1552C38.6707 31.8591 38.9691 31.6166 39.3077 31.4431C39.6464 31.2697 40.0176 31.1694 40.3975 31.1485C42.6909 31.0974 45.1305 34.428 45.8024 36.3635C45.8536 36.5096 46.321 38.5547 46.416 39.1098C46.9418 37.649 47.4604 36.1883 47.8767 34.7275C48.4944 32.7553 48.9824 30.7449 49.3375 28.709C49.1915 28.709 45.3277 28.3438 43.8011 27.4673C42.4718 26.737 40.9964 25.3711 40.7992 23.7642C40.7381 23.3888 40.7569 23.0046 40.8545 22.6369C40.9521 22.2692 41.1262 21.9263 41.3654 21.6305C41.6047 21.3347 41.9036 21.0928 42.2428 20.9205C42.582 20.7483 42.9537 20.6496 43.3337 20.6309C45.6198 20.5724 48.0593 23.903 48.7313 25.8386C48.7751 25.9627 49.1403 27.5404 49.2937 28.3H49.4179C49.7196 26.2427 49.8369 24.1625 49.7685 22.0843C49.7685 20.9376 49.6589 19.8493 49.5494 18.7903C48.819 18.7903 45.503 18.7903 44.0422 18.1548C42.5814 17.5194 41.0256 16.38 40.6458 14.8096C40.5445 14.4418 40.522 14.0567 40.5799 13.6795C40.6377 13.3024 40.7745 12.9417 40.9813 12.6211C41.1882 12.3004 41.4604 12.0271 41.7802 11.819C42.1 11.6109 42.4601 11.4726 42.837 11.4133C45.1086 11.0992 47.8987 14.1523 48.7824 15.9929C48.8263 16.0951 49.2061 17.1688 49.4617 17.9576C49.4106 17.4755 49.3594 16.9789 49.2937 16.4968C49.0673 14.7804 48.7459 13.2247 48.4538 11.8442C48.2785 11.0627 48.1105 10.3834 47.9425 9.70416C47.2121 9.33896 44.3489 7.83435 43.3702 6.62189C42.3915 5.40944 41.515 3.64919 41.9094 2.08614C41.9967 1.71703 42.1605 1.37036 42.3902 1.06855C42.62 0.766741 42.9105 0.51652 43.243 0.334076C43.5756 0.151633 43.9427 0.0410306 44.3206 0.0094246C44.6986 -0.0221814 45.079 0.0259136 45.4372 0.150597Z" fill="white"/>
<path d="M86.8362 35.4205C85.0467 35.3474 81.4678 33.5141 81.4678 33.5141C81.4678 33.5141 83.3887 31.5202 83.5275 31.4106C85.127 30.1397 88.9689 28.6132 90.8752 29.8841C91.1869 30.1024 91.4489 30.384 91.6441 30.7106C91.8394 31.0372 91.9635 31.4013 92.0083 31.7791C92.0531 32.157 92.0176 32.54 91.9042 32.9032C91.7908 33.2664 91.6019 33.6015 91.35 33.8866C90.3275 35.1356 88.3627 35.4862 86.8362 35.4205Z" fill="white"/>
</g>
<path d="M65.9394 80.2381C65.9394 80.2381 55.0784 54.0608 49.0015 55.2002C42.9246 56.3396 59.4242 96.9349 59.4242 96.9349C59.4242 96.9349 40.3171 60.89 27.2869 60.89C14.2567 60.89 32.0637 100.726 48.6071 114.004C48.6071 114.004 22.5466 85.9279 7.34713 91.9975C-7.85238 98.0671 37.7096 126.509 37.7096 126.509C37.7096 126.509 11.2182 118.175 14.2786 124.631C17.3389 131.088 25.5705 132.213 25.5705 132.213L32.5384 133.732H70.5189L76.3621 131.461C76.3621 131.461 100.684 119.314 94.1691 114.384C87.654 109.454 73.3237 120.074 73.3237 120.074C73.3237 120.074 98.0767 92.7571 93.2999 82.517C88.5232 72.2768 67.2395 101.105 67.2395 101.105C67.2395 101.105 84.6155 64.3009 81.117 57.8515C77.6184 51.4022 65.9394 80.2381 65.9394 80.2381Z" fill="#9DE392"/>
<path opacity="0.4" d="M65.9394 80.2381C65.9394 80.2381 55.0784 54.0608 49.0015 55.2002C42.9246 56.3396 59.4242 96.9349 59.4242 96.9349C59.4242 96.9349 40.3171 60.89 27.2869 60.89C14.2567 60.89 32.0637 100.726 48.6071 114.004C48.6071 114.004 22.5466 85.9279 7.34713 91.9975C-7.85238 98.0671 37.7096 126.509 37.7096 126.509C37.7096 126.509 11.2182 118.175 14.2786 124.631C17.3389 131.088 25.5705 132.213 25.5705 132.213L36.9208 133.732H67.5974L76.3621 131.461C76.3621 131.461 100.684 119.314 94.1691 114.384C87.654 109.454 73.3237 120.074 73.3237 120.074C73.3237 120.074 98.0767 92.7571 93.2999 82.517C88.5232 72.2768 67.2395 101.105 67.2395 101.105C67.2395 101.105 84.6155 64.3009 81.117 57.8515C77.6184 51.4022 65.9394 80.2381 65.9394 80.2381Z" fill="white"/>
<path d="M69.4159 81.6191C59.8623 109.849 59.8623 129.825 59.8623 129.825C59.8623 129.825 71.1542 130.263 82.877 121.572" stroke="#263829" stroke-linecap="round" stroke-linejoin="round"/>
<path d="M64.676 96.8175C62.7047 88.3788 60.0896 80.1035 56.8535 72.0645" stroke="#263829" stroke-linecap="round" stroke-linejoin="round"/>
<path d="M36.4092 80.3105L60.724 116.363C60.724 116.363 77.2309 102.485 82.8769 94.6482" stroke="#263829" stroke-linecap="round" stroke-linejoin="round"/>
<path d="M60.293 125.049C60.293 125.049 34.6708 112.887 24.248 105.941" stroke="#263829" stroke-linecap="round" stroke-linejoin="round"/>
<path d="M137.431 21.793H132.15V241.853H137.431V21.793Z" fill="#C2C2C2" stroke="#ABABAB" stroke-linecap="round" stroke-linejoin="round"/>
<path d="M42.436 21.793H37.1553V241.853H42.436V21.793Z" fill="#C2C2C2" stroke="#ABABAB" stroke-linecap="round" stroke-linejoin="round"/>
<path d="M89.9331 21.793H84.6523V241.853H89.9331V21.793Z" fill="#C2C2C2" stroke="#ABABAB" stroke-linecap="round" stroke-linejoin="round"/>
<path d="M184.921 21.793H179.641V241.853H184.921V21.793Z" fill="#C2C2C2" stroke="#ABABAB" stroke-linecap="round" stroke-linejoin="round"/>
<path d="M183.336 28.6523H35.4531V38.6807H183.336V28.6523Z" fill="#C2C2C2" stroke="#ABABAB" stroke-linecap="round" stroke-linejoin="round"/>
<path d="M183.336 28.6523H88.166V38.6807H183.336V28.6523Z" fill="#A6A6A6" stroke="#ABABAB" stroke-linecap="round" stroke-linejoin="round"/>
<path d="M183.336 129.629H35.4531V139.657H183.336V129.629Z" fill="#C2C2C2" stroke="#ABABAB" stroke-linecap="round" stroke-linejoin="round"/>
<path d="M183.336 129.629H88.166V139.657H183.336V129.629Z" fill="#A6A6A6" stroke="#ABABAB" stroke-linecap="round" stroke-linejoin="round"/>
<path d="M183.336 230.598H35.4531V240.626H183.336V230.598Z" fill="#C2C2C2" stroke="#ABABAB" stroke-linecap="round" stroke-linejoin="round"/>
<path d="M183.336 230.598H88.166V240.626H183.336V230.598Z" fill="#A6A6A6" stroke="#ABABAB" stroke-linecap="round" stroke-linejoin="round"/>
<path d="M88.1875 176.76H10.7949V241.772H88.1875V176.76Z" fill="#319EFF"/>
<path opacity="0.6" d="M88.1875 176.76H10.7949V241.772H88.1875V176.76Z" fill="white" stroke="#696969" stroke-linecap="round" stroke-linejoin="round"/>
<path d="M88.1875 176.76H10.7949V241.772H88.1875V176.76Z" stroke="#696969" stroke-linecap="round" stroke-linejoin="round"/>
<path d="M88.1879 176.76H62.4707V241.772H88.1879V176.76Z" fill="#319EFF"/>
<path opacity="0.39" d="M88.1879 176.76H62.4707V241.772H88.1879V176.76Z" fill="white" stroke="#696969" stroke-linecap="round" stroke-linejoin="round"/>
<path d="M88.1879 176.76H62.4707V241.772H88.1879V176.76Z" stroke="#696969" stroke-linecap="round" stroke-linejoin="round"/>
<path d="M75.5957 176.936V241.853" stroke="#696969" stroke-linecap="round" stroke-linejoin="round"/>
<path d="M92.0947 111.85H14.7021V176.862H92.0947V111.85Z" fill="#319EFF"/>
<path opacity="0.6" d="M92.0947 111.85H14.7021V176.862H92.0947V111.85Z" fill="white" stroke="#696969" stroke-linecap="round" stroke-linejoin="round"/>
<path d="M92.0947 111.85H14.7021V176.862H92.0947V111.85Z" stroke="#696969" stroke-linecap="round" stroke-linejoin="round"/>
<path d="M92.0951 111.85H66.3779V176.862H92.0951V111.85Z" fill="#319EFF"/>
<path opacity="0.39" d="M92.0951 111.85H66.3779V176.862H92.0951V111.85Z" fill="white" stroke="#696969" stroke-linecap="round" stroke-linejoin="round"/>
<path d="M92.0951 111.85H66.3779V176.862H92.0951V111.85Z" stroke="#696969" stroke-linecap="round" stroke-linejoin="round"/>
<path d="M79.5029 112.025V176.943" stroke="#696969" stroke-linecap="round" stroke-linejoin="round"/>
<path d="M293.494 176.76H216.102V241.772H293.494V176.76Z" fill="#319EFF"/>
<path opacity="0.6" d="M293.494 176.76H216.102V241.772H293.494V176.76Z" fill="white" stroke="#919191" stroke-linecap="round" stroke-linejoin="round"/>
<path d="M293.494 176.76H216.102V241.772H293.494V176.76Z" stroke="#919191" stroke-linecap="round" stroke-linejoin="round"/>
<path d="M293.495 176.76H267.777V241.772H293.495V176.76Z" fill="#319EFF"/>
<path opacity="0.39" d="M293.495 176.76H267.777V241.772H293.495V176.76Z" fill="white" stroke="#919191" stroke-linecap="round" stroke-linejoin="round"/>
<path d="M293.495 176.76H267.777V241.772H293.495V176.76Z" stroke="#919191" stroke-linecap="round" stroke-linejoin="round"/>
<path d="M280.902 176.936V241.853" stroke="#919191" stroke-linecap="round" stroke-linejoin="round"/>
<path d="M293.494 111.682H216.102V176.694H293.494V111.682Z" fill="#319EFF"/>
<path opacity="0.6" d="M293.494 111.682H216.102V176.694H293.494V111.682Z" fill="white" stroke="#919191" stroke-linecap="round" stroke-linejoin="round"/>
<path d="M293.494 111.682H216.102V176.694H293.494V111.682Z" stroke="#919191" stroke-linecap="round" stroke-linejoin="round"/>
<path d="M293.495 111.682H267.777V176.694H293.495V111.682Z" fill="#319EFF"/>
<path opacity="0.39" d="M293.495 111.682H267.777V176.694H293.495V111.682Z" fill="white" stroke="#919191" stroke-linecap="round" stroke-linejoin="round"/>
<path d="M293.495 111.682H267.777V176.694H293.495V111.682Z" stroke="#919191" stroke-linecap="round" stroke-linejoin="round"/>
<path d="M280.902 111.857V176.775" stroke="#919191" stroke-linecap="round" stroke-linejoin="round"/>
<path d="M286.694 57.8516H222.675V111.63H286.694V57.8516Z" fill="#319EFF"/>
<path opacity="0.6" d="M286.694 57.8516H222.675V111.63H286.694V57.8516Z" fill="white" stroke="#919191" stroke-linecap="round" stroke-linejoin="round"/>
<path d="M286.694 57.8516H222.675V111.63H286.694V57.8516Z" stroke="#919191" stroke-linecap="round" stroke-linejoin="round"/>
<path d="M286.694 57.8516H265.425V111.63H286.694V57.8516Z" fill="#319EFF"/>
<path opacity="0.39" d="M286.694 57.8516H265.425V111.63H286.694V57.8516Z" fill="white" stroke="#919191" stroke-linecap="round" stroke-linejoin="round"/>
<path d="M286.694 57.8516H265.425V111.63H286.694V57.8516Z" stroke="#919191" stroke-linecap="round" stroke-linejoin="round"/>
<path d="M276.278 57.998V111.697" stroke="#919191" stroke-linecap="round" stroke-linejoin="round"/>
<path d="M278.507 217.334H268.479V223.608H278.507V217.334Z" fill="white" stroke="#263829" stroke-linecap="round" stroke-linejoin="round"/>
<path d="M184.139 241.853C187.488 241.853 190.202 239.139 190.202 235.791C190.202 232.443 187.488 229.729 184.139 229.729C180.791 229.729 178.077 232.443 178.077 235.791C178.077 239.139 180.791 241.853 184.139 241.853Z" fill="#263829" stroke="#263829" stroke-linecap="round" stroke-linejoin="round"/>
<path d="M283.897 135.449H280.318V235.93H283.897V135.449Z" fill="#319EFF" stroke="#263829" stroke-linecap="round" stroke-linejoin="round"/>
<path d="M281.99 170.596L273.525 163.861C269.924 160.992 267.223 157.149 265.744 152.79C264.264 148.43 264.067 143.737 265.176 139.269C265.503 137.965 266.254 136.806 267.313 135.977C268.371 135.148 269.675 134.695 271.02 134.689H292.931C294.277 134.692 295.582 135.144 296.641 135.974C297.7 136.804 298.451 137.964 298.775 139.269C299.886 143.737 299.691 148.429 298.212 152.789C296.733 157.149 294.033 160.992 290.434 163.861L281.99 170.596ZM271.034 138.115C270.449 138.113 269.88 138.308 269.419 138.668C268.958 139.028 268.632 139.533 268.492 140.102C267.538 143.931 267.705 147.954 268.972 151.691C270.24 155.429 272.556 158.723 275.643 161.181L281.976 166.221L288.315 161.181C291.404 158.723 293.721 155.43 294.991 151.693C296.262 147.956 296.431 143.932 295.481 140.102C295.34 139.534 295.013 139.03 294.553 138.67C294.092 138.31 293.524 138.114 292.939 138.115H271.034Z" fill="#263829"/>
<path d="M260.977 220.475H150.154V233.373H260.977V220.475Z" fill="white"/>
<path opacity="0.28" d="M260.977 220.475H150.154V233.373H260.977V220.475Z" fill="black" stroke="#263829" stroke-linecap="round" stroke-linejoin="round"/>
<path d="M260.977 220.475H150.154V233.373H260.977V220.475Z" stroke="#263829" stroke-linecap="round" stroke-linejoin="round"/>
<path d="M162.571 220.475H150.154V233.373H162.571V220.475Z" stroke="#263829" stroke-linecap="round" stroke-linejoin="round"/>
<path d="M260.969 220.475H248.553V233.373H260.969V220.475Z" stroke="#263829" stroke-linecap="round" stroke-linejoin="round"/>
<path d="M211.77 220.475H199.354V233.373H211.77V220.475Z" stroke="#263829" stroke-linecap="round" stroke-linejoin="round"/>
<path d="M260.977 233.372H268.616L278.17 197.064H270.53L260.977 233.372Z" fill="white" stroke="#263829" stroke-linecap="round" stroke-linejoin="round"/>
<path d="M287.125 212.352H277.097V228.596H287.125V212.352Z" fill="white" stroke="#263829" stroke-linecap="round" stroke-linejoin="round"/>
<path d="M279.654 241.854C279.085 241.844 278.543 241.614 278.141 241.212C277.738 240.81 277.508 240.268 277.499 239.699V231.614C277.508 231.045 277.738 230.503 278.141 230.1C278.543 229.698 279.085 229.468 279.654 229.459V229.459C280.222 229.468 280.765 229.698 281.167 230.1C281.569 230.503 281.799 231.045 281.808 231.614V239.721C281.793 240.286 281.561 240.823 281.159 241.22C280.758 241.618 280.218 241.845 279.654 241.854V241.854Z" fill="#263829"/>
<path d="M284.773 241.854C284.204 241.844 283.662 241.614 283.26 241.212C282.858 240.81 282.628 240.268 282.618 239.699V231.614C282.628 231.045 282.858 230.503 283.26 230.1C283.662 229.698 284.204 229.468 284.773 229.459V229.459C285.348 229.459 285.9 229.685 286.309 230.088C286.719 230.491 286.954 231.039 286.964 231.614V239.721C286.949 240.292 286.711 240.834 286.302 241.233C285.893 241.631 285.344 241.854 284.773 241.854V241.854Z" fill="#263829"/>
<path d="M1 241.854H303.245" stroke="#263829" stroke-linecap="round" stroke-linejoin="round"/>
<path d="M105.278 262.955C134.419 262.955 158.042 260.083 158.042 256.542C158.042 253 134.419 250.129 105.278 250.129C76.1378 250.129 52.5146 253 52.5146 256.542C52.5146 260.083 76.1378 262.955 105.278 262.955Z" fill="#319EFF"/>
<path opacity="0.5" d="M105.278 262.955C134.419 262.955 158.042 260.083 158.042 256.542C158.042 253 134.419 250.129 105.278 250.129C76.1378 250.129 52.5146 253 52.5146 256.542C52.5146 260.083 76.1378 262.955 105.278 262.955Z" fill="white"/>
<path d="M214.465 256.52C214.465 258.287 202.684 259.719 188.171 259.719C173.658 259.719 161.877 258.258 161.877 256.52C161.877 254.782 173.651 253.328 188.171 253.328C202.691 253.328 214.465 254.782 214.465 256.52Z" fill="#319EFF"/>
<path opacity="0.5" d="M214.465 256.52C214.465 258.287 202.684 259.719 188.171 259.719C173.658 259.719 161.877 258.258 161.877 256.52C161.877 254.782 173.651 253.328 188.171 253.328C202.691 253.328 214.465 254.782 214.465 256.52Z" fill="white"/>
<path d="M115.803 45.2825C115.803 45.2825 111.72 42.0761 107.038 43.6756C102.356 45.2752 98.8068 53.0758 97.5432 59.4156C96.2796 65.7555 91.4225 70.5615 92.5911 77.9969C93.7597 85.4323 102.21 86.5936 112.414 87.6892C122.618 88.7848 128.154 87.5431 132.96 80.8381C137.766 74.1331 135.728 65.9746 132.887 58.7583C130.046 51.542 125.313 44.8443 121.376 43.6026C117.439 42.3609 115.803 45.2825 115.803 45.2825Z" fill="#263829" stroke="#263829" stroke-linecap="round" stroke-linejoin="round"/>
<path d="M98.9316 83.416C99.6206 83.7258 100.337 83.9703 101.072 84.1464" stroke="white" stroke-linecap="round" stroke-linejoin="round"/>
<path d="M114.781 50.4766C113.117 54.1945 111.007 57.6968 108.499 60.9066C104.322 66.275 95.082 71.3439 94.4904 76.9753C94.3954 77.7292 94.4614 78.4948 94.6843 79.2213C94.9071 79.9478 95.2817 80.6187 95.7832 81.1896" stroke="white" stroke-linecap="round" stroke-linejoin="round"/>
<path d="M131.733 77.4043C131.431 78.1112 131.044 78.7785 130.579 79.391" stroke="white" stroke-linecap="round" stroke-linejoin="round"/>
<path d="M128.22 63.2949C128.22 63.2949 132.916 68.7144 132.463 74.4992" stroke="white" stroke-linecap="round" stroke-linejoin="round"/>
<path d="M113.89 47.4889C112.059 47.3026 110.211 47.5575 108.499 48.2323C106.788 48.907 105.262 49.982 104.051 51.3673C103.883 51.5572 103.73 51.7471 103.584 51.937" stroke="white" stroke-linecap="round" stroke-linejoin="round"/>
<path d="M86.945 185.16L86.032 199.213C86.032 199.213 82.1463 218.065 80.9192 225.836C79.6922 233.607 77.4425 245.425 77.0335 245.425C76.6245 245.425 69.9195 249.479 67.7721 252.788C65.6248 256.096 68.3491 257.499 71.3291 256.44C74.3092 255.381 78.3555 252.386 79.6775 248.829C80.9996 245.272 81.6569 243.95 81.7446 243.373C81.8322 242.796 95.9653 204.852 97.3677 200.798C98.7701 196.744 101.75 184.839 101.75 184.839L108.696 161.277C108.696 161.277 116.132 185.504 116.219 186.577C116.307 187.651 123.903 249.574 124.254 251.889C124.604 254.205 124.502 255.855 125.904 256.352C127.307 256.849 130.615 256.849 132.354 256.849C134.092 256.849 140.125 257.762 143.098 257.017C146.07 256.272 146.406 255.775 144.339 254.285C142.272 252.795 130.791 251.845 129.731 247.507C129.644 247.178 129.563 183.437 129.563 183.437C129.563 183.437 128.57 162.358 126.919 156.412H88.7198L86.945 185.16Z" fill="white" stroke="#263829" stroke-linecap="round" stroke-linejoin="round"/>
<path d="M71.3226 256.424C74.2953 255.343 78.349 252.37 79.671 248.813L79.9486 248.083C78.2614 249.88 75.5662 252.378 75.5662 252.378C75.401 251.53 75.0326 250.736 74.4925 250.062C74.2569 249.802 73.9551 249.611 73.6193 249.51C73.2835 249.408 72.9264 249.4 72.5862 249.485L75.5078 246.271C73.3166 247.63 69.3725 250.406 67.824 252.794C65.6109 256.088 68.328 257.498 71.3226 256.424Z" fill="#319EFF" stroke="#263829" stroke-linecap="round" stroke-linejoin="round"/>
<path d="M144.289 254.27C142.872 253.255 137.051 252.488 133.165 250.713C133.005 250.849 132.879 251.022 132.8 251.217C132.553 251.917 132.36 252.635 132.223 253.364L124.188 251.648V251.874C124.517 254.19 124.437 255.84 125.839 256.337C127.242 256.834 130.55 256.834 132.289 256.834C134.027 256.834 140.06 257.747 143.033 257.002C146.005 256.257 146.385 255.789 144.289 254.27Z" fill="#319EFF" stroke="#263829" stroke-linecap="round" stroke-linejoin="round"/>
<path d="M98.0765 122.127C98.0765 122.127 94.2857 123.873 89.6989 132.111C84.6811 141.103 85.5429 146.099 85.4699 156.945C85.3968 167.791 85.1777 185.795 85.1777 185.795C85.1777 185.795 99.0552 189.513 109.01 188.929C118.966 188.344 131.594 186.088 131.594 186.088C131.594 186.088 128.899 149.363 126.35 138.802C123.801 128.24 122.267 123.464 122.267 123.464C117.34 124.147 112.348 124.221 107.404 123.683C98.953 122.857 98.0765 122.127 98.0765 122.127Z" fill="#319EFF" stroke="#263829" stroke-linecap="round" stroke-linejoin="round"/>
<path d="M114.043 154.607C114.423 155.856 114.773 157.12 115.08 158.384" stroke="white" stroke-linecap="round" stroke-linejoin="round"/>
<path d="M105.242 133.938C108.184 139.367 110.709 145.012 112.794 150.824" stroke="white" stroke-linecap="round" stroke-linejoin="round"/>
<path d="M191.121 115.144C190.683 114.852 183.503 113.727 183.503 113.727L182.101 113.15C182.101 113.15 190.793 113.844 190.866 113.479C190.939 113.114 191.231 112.675 190.647 112.602C190.062 112.529 178.88 110.258 178.88 110.258C178.88 110.258 181.721 107.57 182.086 106.986C182.452 106.401 182.956 105.233 182.371 105.233C181.787 105.233 181.641 105.598 180.845 106.109C180.049 106.62 176.908 107.862 176.031 108.585C175.155 109.308 172.54 111.207 172.54 111.207L142.17 107.029C142.17 107.029 131.507 93.8824 129.191 91.0776C127.582 89.2059 125.749 87.538 123.735 86.111C121.5 85.1249 121.544 86.7756 121.544 86.7756L126.211 107.519C126.211 107.519 138.285 114.713 139.03 114.713C139.775 114.713 172.394 115.794 172.394 115.794C172.394 115.794 174.585 116.817 175.958 117.686C177.332 118.555 186.089 121.338 186.089 121.338C186.089 121.338 186.673 121.046 186.016 120.534C185.359 120.023 181.137 117.985 181.137 117.985L189.902 119.884C189.902 119.884 190.413 119.519 190.194 119.154C189.975 118.789 182.159 115.801 182.159 115.801L190.924 116.24C190.924 116.24 191.552 115.436 191.121 115.144Z" fill="white" stroke="#263829" stroke-linecap="round" stroke-linejoin="round"/>
<path d="M140.337 104.773C137.189 100.894 130.9 93.152 129.191 91.0776C127.582 89.2059 125.749 87.538 123.735 86.111C121.5 85.1249 121.544 86.7756 121.544 86.7756L126.211 107.519C126.211 107.519 131.66 110.762 135.458 112.895L140.337 104.773Z" fill="white" stroke="#263829" stroke-linecap="round" stroke-linejoin="round"/>
<path d="M108.061 84.3362C108.061 84.3362 101.721 84.6284 97.8353 88.9304C93.9496 93.2324 94.4098 102.698 96.0167 108.381C97.6235 114.063 99.6686 117.197 99.2231 119.169C98.7776 121.141 97.1853 121.791 98.0545 123.61C98.9236 125.428 103.956 127.4 112.845 127.108C121.734 126.816 123.414 124.917 123.487 123.252C123.56 121.586 122.902 120.191 123.122 119.169C123.341 118.146 129.754 112.464 129.754 106.197C129.754 99.9301 126.985 97.7463 126.328 93.2251C125.671 88.704 125.89 88.0539 123.195 86.0819C120.499 84.1098 111.632 83.0945 108.061 84.3362Z" fill="white" stroke="#263829" stroke-linecap="round" stroke-linejoin="round"/>
<path d="M105.183 106.059C103.064 107.832 100.713 109.306 98.1934 110.441" stroke="#263829" stroke-linecap="round" stroke-linejoin="round"/>
<path d="M105.884 106.789C105.884 106.789 104.314 111.858 100.465 114.655" stroke="#263829" stroke-linecap="round" stroke-linejoin="round"/>
<path d="M121.618 88.9238L122.348 95.921L119.28 92.3494L121.618 88.9238Z" fill="white" stroke="#263829" stroke-linecap="round" stroke-linejoin="round"/>
<path d="M117.534 96.5059L121.617 88.9244L117.899 84.9219L117.534 96.5059Z" fill="white" stroke="#263829" stroke-linecap="round" stroke-linejoin="round"/>
<path d="M109.668 71.9492C110.305 74.4754 110.621 77.0716 110.61 79.6768C110.589 81.3637 110.418 83.0453 110.099 84.7019L117.534 96.5051L119.645 85.5492L121.033 77.9677C121.033 77.9677 112.582 77.4856 109.668 71.9492Z" fill="white" stroke="#263829" stroke-linecap="round" stroke-linejoin="round"/>
<path d="M117.096 90.166L117.534 96.5058L115.351 93.0803L117.096 90.166Z" fill="white" stroke="#263829" stroke-linecap="round" stroke-linejoin="round"/>
<path d="M107.623 84.4099L114.401 96.5782L117.096 90.1654L109.887 80.2539L107.623 84.4099Z" fill="white" stroke="#263829" stroke-linecap="round" stroke-linejoin="round"/>
<path d="M226.371 90.084H164.864V140.554H226.371V90.084Z" fill="#319EFF"/>
<path opacity="0.2" d="M226.371 90.084H164.864V140.554H226.371V90.084Z" fill="black"/>
<path d="M226.371 90.084H164.864V140.554H226.371V90.084Z" stroke="#263829" stroke-linecap="round" stroke-linejoin="round"/>
<path d="M213.347 90.084H151.841V140.554H213.347V90.084Z" fill="#319EFF" stroke="#263829" stroke-linecap="round" stroke-linejoin="round"/>
<path d="M236.501 157.544C234.529 154.418 226.37 140.555 226.37 140.555H213.354L220.052 157.544H236.501Z" fill="#319EFF"/>
<path opacity="0.2" d="M236.501 157.544C234.529 154.418 226.37 140.555 226.37 140.555H213.354L220.052 157.544H236.501Z" fill="black"/>
<path d="M236.501 157.544C234.529 154.418 226.37 140.555 226.37 140.555H213.354L220.052 157.544H236.501Z" stroke="#263829" stroke-linecap="round" stroke-linejoin="round"/>
<path d="M141.674 157.544C143.646 154.418 151.797 140.555 151.797 140.555H164.82L158.122 157.544H141.674Z" fill="#319EFF" stroke="#263829" stroke-linecap="round" stroke-linejoin="round"/>
<path d="M151.797 140.555L146.137 157.544H210.375L213.355 140.555H151.797Z" fill="#319EFF" stroke="#263829" stroke-linecap="round" stroke-linejoin="round"/>
<path d="M234.288 108.346V125.247" stroke="#263829" stroke-linecap="round" stroke-linejoin="round"/>
<path d="M237.487 115.656V129.358" stroke="#263829" stroke-linecap="round" stroke-linejoin="round"/>
<path d="M145.23 125.246V135.749" stroke="#263829" stroke-linecap="round" stroke-linejoin="round"/>
<path d="M142.492 131.184V139.401" stroke="#263829" stroke-linecap="round" stroke-linejoin="round"/>
<path d="M97.4922 102.479C99.6719 104.947 102.202 107.083 105.001 108.819C109.383 111.441 125.452 120.549 126.715 121.06C127.979 121.571 166.354 115.304 166.354 115.304C166.354 115.304 168.545 116.327 169.925 117.196C171.306 118.065 180.056 120.848 180.056 120.848C180.056 120.848 180.64 120.556 179.983 120.052C179.326 119.548 175.104 117.496 175.104 117.496L183.869 119.395C183.869 119.395 184.38 119.029 184.161 118.664C183.942 118.299 176.126 115.312 176.126 115.312L184.891 115.75C184.891 115.75 185.549 114.947 185.11 114.654C184.672 114.362 175.696 112.317 175.696 112.317C175.696 112.317 185.242 111.514 185.315 111.149C185.388 110.783 185.68 110.352 185.096 110.279C184.511 110.206 172.562 109.038 172.562 109.038C172.562 109.038 175.696 107.073 176.061 106.489C176.426 105.904 176.937 104.736 176.353 104.736C175.769 104.736 175.622 105.101 174.826 105.612C174.03 106.123 170.89 107.365 170.013 108.088C169.137 108.811 166.514 110.718 166.514 110.718L131.397 110.791L109.595 93.5898" fill="white"/>
<path d="M97.4922 102.479C99.6719 104.947 102.202 107.083 105.001 108.819C109.383 111.441 125.452 120.549 126.715 121.06C127.979 121.571 166.354 115.304 166.354 115.304C166.354 115.304 168.545 116.327 169.925 117.196C171.306 118.065 180.056 120.848 180.056 120.848C180.056 120.848 180.64 120.556 179.983 120.052C179.326 119.548 175.104 117.496 175.104 117.496L183.869 119.395C183.869 119.395 184.38 119.029 184.161 118.664C183.942 118.299 176.126 115.312 176.126 115.312L184.891 115.75C184.891 115.75 185.549 114.947 185.11 114.654C184.672 114.362 175.696 112.317 175.696 112.317C175.696 112.317 185.242 111.514 185.315 111.149C185.388 110.783 185.68 110.352 185.096 110.279C184.511 110.206 172.562 109.038 172.562 109.038C172.562 109.038 175.696 107.073 176.061 106.489C176.426 105.904 176.937 104.736 176.353 104.736C175.769 104.736 175.622 105.101 174.826 105.612C174.03 106.123 170.89 107.365 170.013 108.088C169.137 108.811 166.514 110.718 166.514 110.718L131.397 110.791L109.595 93.5898" stroke="#263829" stroke-linecap="round" stroke-linejoin="round"/>
<path d="M185.081 110.28C184.504 110.207 172.548 109.038 172.548 109.038C172.548 109.038 175.681 107.074 176.046 106.489C176.412 105.905 176.923 104.736 176.339 104.736C175.754 104.736 175.608 105.102 174.812 105.613C174.016 106.124 170.875 107.366 169.999 108.089C169.122 108.812 166.5 110.718 166.5 110.718L131.383 110.791L127.49 107.702C126.029 110.265 123.297 115.071 121.522 118.241C124.254 119.761 126.321 120.893 126.737 121.061C127.979 121.572 166.376 115.305 166.376 115.305C166.376 115.305 168.567 116.328 169.948 117.197C171.328 118.066 180.078 120.849 180.078 120.849C180.078 120.849 180.662 120.557 180.005 120.053C179.348 119.549 175.126 117.496 175.126 117.496L183.891 119.395C183.891 119.395 184.402 119.03 184.183 118.665C183.964 118.3 176.149 115.312 176.149 115.312L184.913 115.751C184.913 115.751 185.571 114.947 185.133 114.655C184.694 114.363 175.696 112.318 175.696 112.318C175.696 112.318 185.242 111.514 185.315 111.149C185.388 110.784 185.666 110.353 185.081 110.28Z" fill="white" stroke="#263829" stroke-linecap="round" stroke-linejoin="round"/>
<path d="M126.277 65.8277C126.401 65.6766 126.566 65.5635 126.751 65.5013C126.937 65.4391 127.136 65.4304 127.327 65.4761C127.517 65.5218 127.691 65.6201 127.828 65.7597C127.965 65.8994 128.061 66.0748 128.103 66.266C128.225 67.0583 128.184 67.8671 127.983 68.6432C127.782 69.4192 127.425 70.1462 126.934 70.7798C126.131 71.5832 125.4 71.8023 125.4 70.7798C125.603 69.1145 125.896 67.4614 126.277 65.8277V65.8277Z" fill="white" stroke="#263829" stroke-linecap="round" stroke-linejoin="round"/>
<path d="M117.308 53.0605C117.052 56.6151 115.53 59.9603 113.02 62.4899C110.682 64.7896 108.037 66.7559 105.161 68.3331C105.161 68.3331 105.585 70.6192 106.447 71.335C107.308 72.0508 109.018 71.912 109.018 71.912C110.011 74.6288 111.627 77.0751 113.736 79.0553C117.162 82.196 121.164 81.9111 123.45 77.2001C125.736 72.489 126.883 67.7634 126.598 65.0463L126.313 62.3293C126.313 62.3293 118.878 58.2025 117.308 53.0605Z" fill="white" stroke="#263829" stroke-linecap="round" stroke-linejoin="round"/>
<path d="M116.877 67.1869C117.24 67.1869 117.534 66.6637 117.534 66.0182C117.534 65.3728 117.24 64.8496 116.877 64.8496C116.514 64.8496 116.22 65.3728 116.22 66.0182C116.22 66.6637 116.514 67.1869 116.877 67.1869Z" fill="#319EFF"/>
<path d="M120.448 76.515C120.811 76.515 121.106 75.9918 121.106 75.3464C121.106 74.7009 120.811 74.1777 120.448 74.1777C120.085 74.1777 119.791 74.7009 119.791 75.3464C119.791 75.9918 120.085 76.515 120.448 76.515Z" fill="#319EFF"/>
<path d="M123.217 67.1869C123.58 67.1869 123.874 66.6637 123.874 66.0182C123.874 65.3728 123.58 64.8496 123.217 64.8496C122.854 64.8496 122.56 65.3728 122.56 66.0182C122.56 66.6637 122.854 67.1869 123.217 67.1869Z" fill="#319EFF"/>
<path d="M121.902 64.7773C121.651 65.6523 121.577 66.5685 121.683 67.4725C121.902 68.7142 122.925 70.825 122.048 71.1902C121.648 71.3726 121.206 71.4419 120.769 71.3904C120.333 71.3389 119.919 71.1686 119.572 70.8981" stroke="#263829" stroke-linecap="round" stroke-linejoin="round"/>
<path d="M114.978 63.9079C114.978 63.9079 115.328 61.6729 118.257 61.9286" stroke="#263829" stroke-linecap="round" stroke-linejoin="round"/>
<path d="M122.822 62.6151C122.822 62.6151 125.554 60.4239 126.438 64.4338" stroke="#263829" stroke-linecap="round" stroke-linejoin="round"/>
</svg>
